PathFileType	4	(X/Y/Z)	 s08c0401.trc
DataRate	CameraRate	NumFrames	NumMarkers	Units	OrigDataRate	OrigDataStartFrame	OrigNumFrames
200	200	6	50	mm	200	501	2000
Frame#	Time	racr			lacr			c7			jug			rlel			rdr			llel			ldr			s2			lic			ric			lasi			rasi			rpsi			lpsi			rgt			lgt			rth1			rth2			rth3			rth4			rlfc			rmfc			rsh1			rsh2			rsh3			rsh4			rlmal			rmmal			rcal			rtoe			rmt5			lth1			lth2			lth4			lth3			llfc			lmfc			llmal			lmmal			lcal			lmt5			lsh1			lsh2			lsh3			lsh4			ltoe			SBIKE			LBIKE			RBIKE			
		X1	Y1	Z1	X2	Y2	Z2	X3	Y3	Z3	X4	Y4	Z4	X5	Y5	Z5	X6	Y6	Z6	X7	Y7	Z7	X8	Y8	Z8	X9	Y9	Z9	X10	Y10	Z10	X11	Y11	Z11	X12	Y12	Z12	X13	Y13	Z13	X14	Y14	Z14	X15	Y15	Z15	X16	Y16	Z16	X17	Y17	Z17	X18	Y18	Z18	X19	Y19	Z19	X20	Y20	Z20	X21	Y21	Z21	X22	Y22	Z22	X23	Y23	Z23	X24	Y24	Z24	X25	Y25	Z25	X26	Y26	Z26	X27	Y27	Z27	X28	Y28	Z28	X29	Y29	Z29	X30	Y30	Z30	X31	Y31	Z31	X32	Y32	Z32	X33	Y33	Z33	X34	Y34	Z34	X35	Y35	Z35	X36	Y36	Z36	X37	Y37	Z37	X38	Y38	Z38	X39	Y39	Z39	X40	Y40	Z40	X41	Y41	Z41	X42	Y42	Z42	X43	Y43	Z43	X44	Y44	Z44	X45	Y45	Z45	X46	Y46	Z46	X47	Y47	Z47	X48	Y48	Z48	X49	Y49	Z49	X50	Y50	Z50	
501	2.5050	837.943483	1334.682741	-1.404396	823.338347	1344.460929	-330.602887	812.370378	1407.742216	-144.777146	720.394641	1225.880001	-63.743004	672.917731	1135.616323	146.664422	783.561457	945.145043	-24.092408	654.878536	1152.535459	-471.240802	790.712885	933.688731	-415.598205	238.026966	1270.686740	-236.827377	416.559604	1234.568298	-363.373656	366.363492	1252.494325	-51.881827	414.012483	1177.275481	-324.238282	394.943705	1202.298333	-87.135420	269.163026	1309.180117	-183.432030	284.316578	1305.521073	-275.802952	280.695338	1169.078923	-27.445810	336.903578	1125.531112	-400.844283	382.446651	1025.315179	-6.255521	449.645316	967.609558	-2.134896	478.867046	885.519421	-8.106318	480.081049	988.347799	-6.615496	544.527797	781.056028	-19.886921	539.313324	778.356453	-139.320224	467.734013	671.149381	-1.777464	457.519486	584.056363	-24.140037	405.201505	516.808938	-37.229810	487.206513	578.804692	-50.917378	354.034637	409.080785	-56.349412	378.124683	431.429549	-141.709912	272.708913	389.331103	-106.107885	565.710796	348.115975	-87.550400	471.726538	323.507809	-26.863339	395.475204	1004.404373	-399.506798	450.169808	936.765441	-391.639471	480.944112	951.013369	-378.911310	464.822258	848.730013	-392.331719	482.976531	717.172466	-378.904165	464.511560	694.188593	-270.988624	159.539932	447.350287	-401.065410	188.504368	435.247104	-316.252537	111.749251	487.298553	-358.127135	154.171469	276.215473	-414.922444	391.687473	626.758437	-405.868437	339.549488	560.609712	-393.183167	259.537167	522.108459	-400.762336	351.272489	546.000354	-356.158642	216.164638	216.995321	-344.360810	-133.072022	946.204989	-219.256057	26.800608	85.543171	-426.240316	18.462375	80.354525	-28.038715	
502	2.5100	836.899083	1335.831756	-1.031425	823.208531	1343.740289	-331.055917	811.816291	1407.937930	-145.027264	718.496763	1226.217103	-61.277783	672.325377	1135.831634	146.872654	781.985312	944.019203	-24.053354	654.063636	1151.257681	-470.722141	790.190556	933.654789	-414.391781	237.458223	1268.722466	-237.318890	416.843259	1233.784692	-362.629813	365.822682	1249.985458	-50.915162	414.317069	1176.685764	-323.553603	394.281385	1199.739440	-85.705928	268.649605	1306.729365	-183.440278	283.903865	1304.122304	-276.412828	278.627888	1165.298932	-28.382408	338.849815	1125.180839	-401.475195	378.709838	1020.027627	-6.594230	445.009811	961.755569	-1.560849	472.904049	879.109089	-8.388866	475.794383	981.780346	-5.979455	537.926414	773.875807	-19.960478	531.453619	767.367895	-131.752768	462.936078	663.083477	-2.134667	454.670436	575.442321	-24.525165	403.602817	507.493512	-37.358646	484.452237	570.962754	-51.028067	354.055331	398.728331	-56.480128	377.773242	420.673905	-141.341326	273.184723	379.166435	-106.361672	566.021343	336.964285	-87.627506	471.937670	312.657726	-27.026752	397.865043	1004.486712	-399.953334	453.252735	937.504744	-391.509006	483.716572	952.125558	-378.379582	468.983191	849.698996	-392.139285	488.797806	719.146484	-377.892326	469.628799	696.261977	-269.922045	159.376854	457.912720	-400.920801	188.134581	445.400115	-315.463884	111.493210	497.937039	-358.027660	153.921018	286.805984	-414.816811	395.620397	631.570506	-405.264016	342.117850	566.843848	-393.062539	261.251263	529.936578	-399.886347	355.025876	554.091299	-359.971554	215.924951	227.644380	-344.236691	-133.089222	946.197071	-219.299441	26.777688	85.510597	-426.252983	18.421044	80.342239	-28.021720	
503	2.5150	835.867767	1337.329882	-0.696840	823.283984	1342.755715	-331.570359	811.336558	1408.313913	-145.549521	716.473511	1226.941772	-58.962847	671.809378	1136.221891	146.859378	780.686595	943.114331	-23.850669	652.948937	1149.872503	-469.973279	789.262938	934.237977	-415.182632	236.871629	1266.814656	-237.716104	417.001335	1232.930993	-361.731188	365.374722	1247.536589	-49.999681	414.526709	1175.941032	-322.705114	393.757815	1197.046480	-83.996805	268.139213	1304.705237	-183.890557	283.551345	1302.493644	-276.416014	276.857406	1161.416502	-29.035805	340.546947	1124.656939	-402.044802	375.169915	1014.628307	-7.175507	440.501057	954.324275	-3.354153	467.521210	872.204865	-9.606472	471.572139	974.568617	-5.936616	531.487476	766.851513	-20.372636	525.630469	760.401135	-132.628367	457.420239	654.865344	-2.631563	450.983712	567.000748	-24.765708	401.372808	498.089687	-37.796866	481.127144	563.167228	-50.905439	353.691030	388.454379	-56.579175	376.964254	410.700307	-141.327822	273.162726	369.093010	-106.668240	565.874954	326.065121	-87.283598	471.555249	301.674203	-27.262226	399.961729	1004.329634	-400.562175	456.215317	938.124229	-391.655880	486.256663	953.039958	-377.946877	473.033263	850.561004	-392.180758	494.593390	721.448171	-376.922080	474.764816	698.090051	-269.077248	159.581297	468.478234	-400.811250	188.152910	455.535392	-315.257206	111.578188	508.482498	-358.016682	154.245459	297.463713	-414.728824	399.830950	636.526836	-404.677642	344.780004	572.775848	-392.699117	262.873756	538.163735	-399.590243	357.607289	559.736638	-359.830112	216.472880	238.742680	-344.243630	-133.127250	946.151011	-219.460095	26.751694	85.459319	-426.268516	18.399948	80.340262	-28.014951	
504	2.5200	834.783168	1339.023566	-0.661986	823.184762	1342.367449	-333.838896	810.841977	1408.946111	-146.395924	714.311355	1228.038184	-56.794039	671.425090	1136.707890	146.651612	779.641410	942.204647	-23.424141	653.440151	1148.043016	-466.558235	789.156840	934.462265	-415.301833	236.265937	1265.062881	-237.969629	416.997727	1232.072064	-360.655581	365.015991	1245.006985	-49.140413	414.572159	1175.012643	-321.953130	393.379777	1194.231235	-81.987091	267.046180	1301.158885	-182.289678	282.956734	1300.743351	-276.150010	275.372481	1157.193243	-29.579514	342.060919	1123.889030	-402.414774	371.724116	1008.863294	-7.723723	436.283744	947.504169	-4.067793	461.981779	864.836223	-11.122524	467.510676	967.238523	-5.565907	524.764755	759.558527	-21.410280	519.955424	752.179889	-133.102329	451.351731	646.566809	-3.193629	446.596070	558.446595	-24.694014	398.648009	488.462555	-38.314602	477.216728	554.962264	-50.805446	352.822176	378.237464	-56.732380	376.276666	400.416569	-141.510800	272.625774	359.370840	-106.916138	564.963433	314.162886	-87.962103	470.655953	290.840795	-27.572426	401.802487	1003.995011	-401.241270	459.058222	938.581073	-391.770395	488.643557	953.931586	-377.351922	477.250217	851.296478	-392.356474	500.528481	723.811592	-376.096728	480.471181	699.951029	-268.340445	160.296986	479.033128	-400.688454	188.436902	465.718867	-315.415021	112.034247	519.070725	-358.049449	155.323663	308.175555	-414.753466	403.880361	641.993533	-404.449157	341.584153	576.991382	-397.444548	264.918144	546.438177	-399.211849	359.338816	563.556928	-357.051216	217.741064	249.535295	-344.043792	-133.217079	946.060750	-219.673557	26.740187	85.310667	-426.312406	18.368771	80.315338	-28.038617	
505	2.5250	833.657467	1340.949834	-0.636506	822.878553	1341.453010	-335.134099	810.403225	1409.754783	-147.515126	712.007932	1229.475221	-54.757229	671.180498	1137.227446	146.237027	779.156951	941.582554	-22.896675	651.174683	1146.578830	-467.122292	789.518643	932.707928	-410.464681	235.637533	1263.223134	-237.879685	416.815805	1231.258914	-359.706614	364.742870	1242.255913	-48.342387	414.457870	1174.150814	-321.160499	393.221679	1191.147552	-80.638400	266.541735	1298.823083	-182.313469	282.322048	1298.900966	-275.575264	274.095813	1152.739674	-29.980523	343.283954	1123.054365	-402.574264	368.580374	1003.050465	-8.511309	431.965449	940.294774	-5.114516	456.292666	857.299058	-12.943653	463.582453	959.796873	-5.915347	517.897652	751.888113	-22.696607	510.929827	744.889585	-136.241883	445.194479	638.040865	-3.981504	441.957684	549.870960	-24.925323	395.307204	478.929798	-38.730399	472.833275	546.566240	-50.978839	351.403415	368.229818	-56.728461	375.034603	390.406203	-141.403425	271.385521	349.659563	-106.952897	563.687329	303.840252	-87.275202	469.149859	280.009588	-27.915720	403.669587	1003.517004	-401.890507	461.934741	939.117987	-391.752498	490.950655	954.897204	-376.567127	481.688330	852.175138	-392.643090	506.492982	726.460536	-375.083552	486.072343	701.959573	-267.723207	161.450553	489.507898	-400.675211	189.467403	475.968243	-315.206108	112.985157	529.407776	-358.153586	157.080770	318.718076	-414.711176	408.100283	647.581659	-403.666533	345.265881	583.880857	-397.286188	267.353908	554.798559	-398.812079	362.431956	569.431194	-357.223584	219.755595	260.522261	-343.997073	-133.311688	945.949102	-219.945428	26.702168	85.111736	-426.281396	18.341142	80.269080	-28.076510	
506	2.5300	832.503519	1343.084013	-1.074255	822.499947	1340.408980	-336.371359	809.898870	1410.553725	-148.983338	709.600867	1231.189221	-52.852437	671.134393	1137.785948	145.591855	779.115939	941.142204	-22.423536	649.443518	1145.155798	-466.724539	789.003754	931.828960	-408.533798	234.898391	1261.271244	-237.314730	416.387828	1230.319009	-358.599677	364.580233	1239.430693	-47.581674	414.293259	1173.329832	-320.173714	393.004731	1187.777743	-79.555950	265.958418	1296.282972	-181.729906	281.574502	1296.655296	-274.694794	273.011412	1148.126771	-30.311692	344.254842	1122.096105	-402.594255	365.564780	996.952231	-9.094092	427.551895	932.964519	-6.035368	450.529752	849.794070	-14.945448	459.513580	951.636738	-7.207102	510.987455	744.180171	-24.287297	505.290838	736.577691	-136.843001	438.986786	629.375018	-4.980980	436.149336	541.816402	-24.093740	391.576850	469.547633	-39.192979	468.164755	538.018647	-51.498009	349.487012	358.305750	-56.561563	373.023968	380.474374	-141.394937	269.461827	340.178459	-106.748681	561.395318	291.608799	-88.923947	466.972753	269.280494	-28.211015	405.585391	1003.211195	-403.001352	464.949675	939.771220	-391.425134	493.363190	956.081189	-375.618629	486.523800	853.263074	-392.580777	512.613004	729.447116	-374.167078	491.286258	704.149465	-267.547166	163.192844	499.807150	-400.634672	191.269796	485.849695	-315.068031	114.380687	539.558121	-358.294359	159.483762	329.124023	-414.697793	412.578273	653.287640	-403.198007	353.624928	592.049202	-391.114545	270.220718	563.117613	-398.484079	365.699608	574.870799	-356.740620	222.370956	271.388506	-344.036923	-133.358313	945.853606	-220.263094	26.709314	85.001503	-426.314498	18.334952	80.265891	-28.099032	
